# xmcd
#
# Track frame offsets: 
#        150
#        29570
#        45754
#        63424
#        75738
#        91650
#        105825
#        123621
#        139304
#        153863
#        168030
#        181011
#        194476
#        217800
#        252413
#        268931
#
# Disc length: 3932 seconds
#
# Revision: 2
# Processed by: cddbd v1.5.2PL0 Copyright (c) Steve Scherf et al.
# Submitted via: ExactAudioCopyFreeDBPlugin 1.0
#
DISCID=cc0f5a10
DTITLE=Various Artist - Going To Canada
DYEAR=2002
DGENRE=Blues
TTITLE0=Carlos Del Junco - Heaven S Where You Dwell
TTITLE1=Fathead - Gypsy Feet
TTITLE2=Morgan Davis - New Good Mornin' L'il School Girl
TTITLE3=Michael Pickett - Blues Money
TTITLE4=Lester Quitzau - Valhalla
TTITLE5=Lester Quitzau - Keep On Walkin
TTITLE6=Grant Lyle And Brotherhood - Down On Bending Knees
TTITLE7=Morgan Davis - Reefer Smokin'  Man
TTITLE8=John Campbelljohn - 30 Dirty Women
TTITLE9=Grant Lyle - All Your Love
TTITLE10=Hot Toddy - Big Wind
TTITLE11=Hot Toddy - One More Night
TTITLE12=Michael Pickett - Love Don't Mean It
TTITLE13=Carlos Del Junco - River II
TTITLE14=Fathead - Tell Me Why
TTITLE15=Barry Mack - Sundown
EXTD=
EXTT0=
EXTT1=
EXTT2=
EXTT3=
EXTT4=
EXTT5=
EXTT6=
EXTT7=
EXTT8=
EXTT9=
EXTT10=
EXTT11=
EXTT12=
EXTT13=
EXTT14=
EXTT15=
PLAYORDER=
